<svg viewBox="0 0 200 200" xmlns="http://www.w3.org/2000/svg">
  <!-- 渐变和滤镜定义 -->
  <defs>
    <!-- 主背景渐变 -->
    <radialGradient id="bgGradient" cx="50%" cy="50%" r="50%">
      <stop offset="0%" style="stop-color:#1a1a2e;stop-opacity:1" />
      <stop offset="100%" style="stop-color:#16213e;stop-opacity:1" />
    </radialGradient>
    
    <!-- 立方体渐变 -->
    <linearGradient id="cubeGradient1" x1="0%" y1="0%" x2="100%" y2="100%">
      <stop offset="0%" style="stop-color:#00d4ff;stop-opacity:1" />
      <stop offset="100%" style="stop-color:#0099cc;stop-opacity:1" />
    </linearGradient>
    
    <linearGradient id="cubeGradient2" x1="0%" y1="0%" x2="100%" y2="100%">
      <stop offset="0%" style="stop-color:#0099cc;stop-opacity:1" />
      <stop offset="100%" style="stop-color:#006699;stop-opacity:1" />
    </linearGradient>
    
    <linearGradient id="cubeGradient3" x1="0%" y1="0%" x2="100%" y2="100%">
      <stop offset="0%" style="stop-color:#006699;stop-opacity:1" />
      <stop offset="100%" style="stop-color:#004466;stop-opacity:1" />
    </linearGradient>
    
    <!-- 神经网络渐变 -->
    <linearGradient id="neuralGradient" x1="0%" y1="0%" x2="100%" y2="100%">
      <stop offset="0%" style="stop-color:#ff6b6b;stop-opacity:1" />
      <stop offset="100%" style="stop-color:#ee5a52;stop-opacity:1" />
    </linearGradient>
    
    <!-- 发光效果 -->
    <filter id="glow">
      <feGaussianBlur stdDeviation="3" result="coloredBlur"/>
      <feMerge> 
        <feMergeNode in="coloredBlur"/>
        <feMergeNode in="SourceGraphic"/>
      </feMerge>
    </filter>
    
    <!-- 强发光效果 -->
    <filter id="strongGlow">
      <feGaussianBlur stdDeviation="5" result="coloredBlur"/>
      <feMerge> 
        <feMergeNode in="coloredBlur"/>
        <feMergeNode in="SourceGraphic"/>
      </feMerge>
    </filter>
    
    <!-- 阴影效果 -->
    <filter id="shadow">
      <feDropShadow dx="2" dy="2" stdDeviation="3" flood-color="#000" flood-opacity="0.5"/>
    </filter>
  </defs>
  
  <!-- 背景 -->
  <circle cx="100" cy="100" r="95" fill="url(#bgGradient)" stroke="url(#neuralGradient)" stroke-width="2"/>
  
  <!-- 3D网格背景 -->
  <g stroke="rgba(0,212,255,0.2)" stroke-width="0.5" fill="none">
    <!-- 垂直线 -->
    <line x1="40" y1="20" x2="40" y2="180"/>
    <line x1="60" y1="20" x2="60" y2="180"/>
    <line x1="80" y1="20" x2="80" y2="180"/>
    <line x1="120" y1="20" x2="120" y2="180"/>
    <line x1="140" y1="20" x2="140" y2="180"/>
    <line x1="160" y1="20" x2="160" y2="180"/>
    
    <!-- 水平线 -->
    <line x1="20" y1="40" x2="180" y2="40"/>
    <line x1="20" y1="60" x2="180" y2="60"/>
    <line x1="20" y1="80" x2="180" y2="80"/>
    <line x1="20" y1="120" x2="180" y2="120"/>
    <line x1="20" y1="140" x2="180" y2="140"/>
    <line x1="20" y1="160" x2="180" y2="160"/>
  </g>
  
  <!-- 主要3D立方体 -->
  <g transform="translate(100, 100)" filter="url(#shadow)">
    <!-- 立方体顶面 -->
    <polygon points="-20,-20 0,-30 20,-20 0,-10" fill="url(#cubeGradient1)" stroke="rgba(255,255,255,0.3)" stroke-width="1"/>
    
    <!-- 立方体左面 -->
    <polygon points="-20,-20 -20,20 0,30 0,-10" fill="url(#cubeGradient2)" stroke="rgba(255,255,255,0.3)" stroke-width="1"/>
    
    <!-- 立方体右面 -->
    <polygon points="0,-10 0,30 20,20 20,-20" fill="url(#cubeGradient3)" stroke="rgba(255,255,255,0.3)" stroke-width="1"/>
  </g>
  
  <!-- 围绕主立方体的小立方体 -->
  <g opacity="0.8">
    <!-- 左上角小立方体 -->
    <g transform="translate(60, 60)" filter="url(#glow)">
      <polygon points="-8,-8 0,-12 8,-8 0,-4" fill="url(#cubeGradient1)"/>
      <polygon points="-8,-8 -8,8 0,12 0,-4" fill="url(#cubeGradient2)"/>
      <polygon points="0,-4 0,12 8,8 8,-8" fill="url(#cubeGradient3)"/>
    </g>
    
    <!-- 右上角小立方体 -->
    <g transform="translate(140, 60)" filter="url(#glow)">
      <polygon points="-8,-8 0,-12 8,-8 0,-4" fill="url(#cubeGradient1)"/>
      <polygon points="-8,-8 -8,8 0,12 0,-4" fill="url(#cubeGradient2)"/>
      <polygon points="0,-4 0,12 8,8 8,-8" fill="url(#cubeGradient3)"/>
    </g>
    
    <!-- 左下角小立方体 -->
    <g transform="translate(60, 140)" filter="url(#glow)">
      <polygon points="-8,-8 0,-12 8,-8 0,-4" fill="url(#cubeGradient1)"/>
      <polygon points="-8,-8 -8,8 0,12 0,-4" fill="url(#cubeGradient2)"/>
      <polygon points="0,-4 0,12 8,8 8,-8" fill="url(#cubeGradient3)"/>
    </g>
    
    <!-- 右下角小立方体 -->
    <g transform="translate(140, 140)" filter="url(#glow)">
      <polygon points="-8,-8 0,-12 8,-8 0,-4" fill="url(#cubeGradient1)"/>
      <polygon points="-8,-8 -8,8 0,12 0,-4" fill="url(#cubeGradient2)"/>
      <polygon points="0,-4 0,12 8,8 8,-8" fill="url(#cubeGradient3)"/>
    </g>
  </g>
  
  <!-- AI神经网络节点 -->
  <g fill="url(#neuralGradient)" opacity="0.9">
    <!-- 输入层 -->
    <circle cx="40" cy="80" r="3" filter="url(#glow)"/>
    <circle cx="40" cy="100" r="3" filter="url(#glow)"/>
    <circle cx="40" cy="120" r="3" filter="url(#glow)"/>
    
    <!-- 隐藏层 -->
    <circle cx="75" cy="70" r="3" filter="url(#glow)"/>
    <circle cx="75" cy="90" r="3" filter="url(#glow)"/>
    <circle cx="75" cy="110" r="3" filter="url(#glow)"/>
    <circle cx="75" cy="130" r="3" filter="url(#glow)"/>
    
    <!-- 输出层 -->
    <circle cx="160" cy="80" r="3" filter="url(#glow)"/>
    <circle cx="160" cy="100" r="3" filter="url(#glow)"/>
    <circle cx="160" cy="120" r="3" filter="url(#glow)"/>
  </g>
  
  <!-- 神经网络连接线 -->
  <g stroke="url(#neuralGradient)" stroke-width="1" opacity="0.6" fill="none">
    <!-- 输入到隐藏层 -->
    <line x1="40" y1="80" x2="75" y2="70"/>
    <line x1="40" y1="80" x2="75" y2="90"/>
    <line x1="40" y1="100" x2="75" y2="90"/>
    <line x1="40" y1="100" x2="75" y2="110"/>
    <line x1="40" y1="120" x2="75" y2="110"/>
    <line x1="40" y1="120" x2="75" y2="130"/>
    
    <!-- 隐藏层到输出 -->
    <line x1="75" y1="70" x2="160" y2="80"/>
    <line x1="75" y1="90" x2="160" y2="80"/>
    <line x1="75" y1="90" x2="160" y2="100"/>
    <line x1="75" y1="110" x2="160" y2="100"/>
    <line x1="75" y1="110" x2="160" y2="120"/>
    <line x1="75" y1="130" x2="160" y2="120"/>
  </g>
  
  <!-- 3D生成过程指示箭头 -->
  <g fill="url(#neuralGradient)" opacity="0.8">
    <polygon points="110,95 125,100 110,105" filter="url(#glow)"/>
    <polygon points="125,100 135,100 135,98 140,100 135,102 135,100" filter="url(#glow)"/>
  </g>
  
  <!-- 数据流粒子 -->
  <g fill="#00d4ff" opacity="0.7">
    <circle cx="50" cy="85" r="1" filter="url(#glow)">
      <animate attributeName="cx" values="50;70;50" dur="2s" repeatCount="indefinite"/>
    </circle>
    <circle cx="55" cy="95" r="1" filter="url(#glow)">
      <animate attributeName="cx" values="55;75;55" dur="2.5s" repeatCount="indefinite"/>
    </circle>
    <circle cx="45" cy="105" r="1" filter="url(#glow)">
      <animate attributeName="cx" values="45;65;45" dur="3s" repeatCount="indefinite"/>
    </circle>
  </g>
  
  <!-- 中心AI 3D标识 -->
  <g transform="translate(100, 100)">
    <circle cx="0" cy="0" r="18" fill="rgba(0,0,0,0.5)" stroke="rgba(0,212,255,0.8)" stroke-width="2" filter="url(#strongGlow)"/>
    <text x="0" y="-3" text-anchor="middle" font-family="Arial, sans-serif" font-size="10" font-weight="bold" fill="#00d4ff">AI</text>
    <text x="0" y="8" text-anchor="middle" font-family="Arial, sans-serif" font-size="8" font-weight="bold" fill="#ff6b6b">3D</text>
  </g>
  
  <!-- 旋转的外环 -->
  <circle cx="100" cy="100" r="85" fill="none" stroke="rgba(0,212,255,0.3)" stroke-width="1" stroke-dasharray="10,5">
    <animateTransform attributeName="transform" type="rotate" values="0 100 100;360 100 100" dur="15s" repeatCount="indefinite"/>
  </circle>
  
  <!-- 反向旋转的内环 -->
  <circle cx="100" cy="100" r="65" fill="none" stroke="rgba(255,107,107,0.3)" stroke-width="1" stroke-dasharray="5,10">
    <animateTransform attributeName="transform" type="rotate" values="360 100 100;0 100 100" dur="12s" repeatCount="indefinite"/>
  </circle>
  
  <!-- 技术感光点 -->
  <g fill="#fff" opacity="0.9">
    <circle cx="30" cy="50" r="1" filter="url(#glow)">
      <animate attributeName="opacity" values="0.3;1;0.3" dur="1.5s" repeatCount="indefinite"/>
    </circle>
    <circle cx="170" cy="50" r="1" filter="url(#glow)">
      <animate attributeName="opacity" values="1;0.3;1" dur="2s" repeatCount="indefinite"/>
    </circle>
    <circle cx="30" cy="150" r="1" filter="url(#glow)">
      <animate attributeName="opacity" values="0.5;1;0.5" dur="2.5s" repeatCount="indefinite"/>
    </circle>
    <circle cx="170" cy="150" r="1" filter="url(#glow)">
      <animate attributeName="opacity" values="1;0.5;1" dur="1.8s" repeatCount="indefinite"/>
    </circle>
  </g>
</svg>